<?xml version="1.0" encoding="utf-8"?>
<!-- Generator: Adobe Illustrator 25.1.0, SVG Export Plug-In . SVG Version: 6.00 Build 0)  -->
<svg version="1.1" id="Layer_1" xmlns="http://www.w3.org/2000/svg" xmlns:xlink="http://www.w3.org/1999/xlink" x="0px" y="0px"
	 viewBox="0 0 382.2 138.6" style="enable-background:new 0 0 382.2 138.6;" xml:space="preserve">
<style type="text/css">
	.st0{fill:#FFFFFF;}
</style>
<g>
	<path class="st0" d="M0,15.4h17.2v4.5c1.5-1.8,3.2-3.3,5.2-4.3s4.4-1.6,7.1-1.6c4.5,0,8,1.3,10.5,4s3.8,6.5,3.8,11.5V59H26.2V32.8
		c0-1.5-0.3-2.6-0.9-3.3c-0.6-0.7-1.5-1-2.6-1c-0.9,0-1.8,0.2-2.5,0.5s-1.3,0.8-1.8,1.5c-0.2,0.3-0.4,0.7-0.5,1.2s-0.2,1.1-0.2,1.9
		V59H0V15.4z"/>
	<path class="st0" d="M47.6,0h17.7v11.2H47.6V0z M47.6,15.4h17.7V59H47.6V15.4z"/>
	<path class="st0" d="M111.2,41.5c-0.3,2.7-0.9,5.2-1.8,7.5s-2.2,4.3-3.9,6c-1.7,1.7-3.8,3-6.3,3.9s-5.6,1.4-9.1,1.4
		c-3.8,0-7.1-0.6-9.9-1.7c-2.8-1.1-5.1-2.7-7-4.7c-1.8-2-3.2-4.4-4.1-7.2s-1.3-5.9-1.3-9.2c0-7.4,2-13.2,5.9-17.3
		c4-4.1,9.4-6.2,16.4-6.2c3.5,0,6.6,0.5,9.1,1.4c2.5,0.9,4.6,2.2,6.2,3.8s2.8,3.4,3.7,5.5c0.9,2.1,1.5,4.2,1.7,6.4l-16.4,1.4
		c-0.2-1.4-0.6-2.4-1.2-3.2c-0.6-0.8-1.5-1.2-2.8-1.2c-1.7,0-2.9,0.7-3.7,2.1c-0.8,1.4-1.2,3.7-1.2,6.8c0,3.3,0.4,5.6,1.3,7
		s2.1,2.1,3.8,2.1c1.3,0,2.3-0.4,3-1.2s1.1-2,1.2-3.5h16.4V41.5z"/>
	<path class="st0" d="M112.9,0h17.7v19.3c1.4-1.6,3.1-2.9,5-3.8c1.9-1,4.2-1.4,6.9-1.4c4.5,0,8,1.3,10.5,4c2.6,2.7,3.8,6.5,3.8,11.5
		V59h-17.7V32.8c0-1.5-0.3-2.6-0.9-3.3s-1.5-1-2.6-1c-0.9,0-1.8,0.2-2.5,0.5s-1.3,0.8-1.8,1.5c-0.2,0.3-0.4,0.7-0.5,1.2
		s-0.2,1.1-0.2,1.9V59h-17.7C112.9,59,112.9,0,112.9,0z"/>
	<path class="st0" d="M182,60.3c-7.5,0-13.2-2-17.1-6.1c-3.8-4-5.7-9.7-5.7-16.9c0-7.3,2-13,6-17.1S175,14,182.4,14
		c7.5,0,13.2,2,17,6.1c3.9,4,5.8,9.7,5.8,16.9c0,7.3-2,13-6,17.1C195.3,58.3,189.5,60.3,182,60.3z M176.9,37.2
		c0,1.8,0.1,3.2,0.4,4.4c0.2,1.2,0.6,2.1,1.1,2.8s1.1,1.2,1.7,1.4c0.7,0.3,1.3,0.4,2.1,0.4s1.5-0.1,2.1-0.4c0.7-0.3,1.2-0.8,1.7-1.4
		c0.5-0.7,0.9-1.6,1.1-2.8c0.2-1.2,0.4-2.6,0.4-4.4c0-1.8-0.1-3.2-0.4-4.4c-0.2-1.2-0.6-2.1-1.1-2.8c-0.5-0.7-1.1-1.2-1.7-1.4
		c-0.7-0.3-1.4-0.4-2.1-0.4c-0.7,0-1.4,0.1-2.1,0.4c-0.7,0.3-1.2,0.8-1.7,1.4c-0.5,0.7-0.9,1.6-1.1,2.8
		C177,34,176.9,35.4,176.9,37.2z"/>
	<path class="st0" d="M208.2,0h17.7v59h-17.7V0z"/>
	<path class="st0" d="M255.3,59v-4.1c-1.8,1.8-3.6,3.1-5.7,4c-2,0.9-4.3,1.3-7,1.3c-1.8,0-3.6-0.2-5.4-0.7c-1.8-0.5-3.3-1.3-4.7-2.3
		c-1.4-1.1-2.5-2.4-3.3-4.1c-0.9-1.6-1.3-3.7-1.3-6c0-2.9,0.6-5.3,1.9-7.2c1.2-1.9,2.9-3.5,5-4.6s4.4-1.9,6.7-2.3
		c2.3-0.4,5-0.7,8.1-0.8l5-0.2v-1.5c0-1.6-0.3-2.8-1-3.5s-1.7-1.1-3-1.1s-2.3,0.3-3,0.9s-1.2,1.5-1.4,2.7l-15.8-1.2
		c0.7-4.7,2.8-8.2,6.3-10.6S245,14,251.1,14c3.8,0,7,0.4,9.5,1.3c2.6,0.9,4.6,2.1,6.2,3.7s2.7,3.5,3.3,5.8c0.7,2.3,1,4.8,1,7.5V59
		H255.3z M254.6,41.3l-4.5,0.2c-2,0.1-3.5,0.5-4.5,1.2s-1.4,1.6-1.4,2.9c0,1,0.3,1.8,1,2.4c0.7,0.5,1.6,0.8,2.9,0.8
		c1.9,0,3.5-0.6,4.8-1.8c1.2-1.2,1.9-2.7,1.9-4.7v-1H254.6z"/>
	<path class="st0" d="M289.1,45c0.3,1.4,0.9,2.3,1.8,2.7s2,0.7,3.3,0.7c1.4,0,2.4-0.2,3.1-0.6c0.6-0.4,0.9-1,0.9-1.9
		c0-0.7-0.2-1.3-0.7-1.7s-1.4-0.8-2.8-1.1l-4.4-0.8c-6-1.1-10.2-2.7-12.9-4.9c-2.6-2.2-4-5.2-4-9.2c0-4.4,1.7-7.9,5.2-10.3
		c3.5-2.5,8.5-3.7,15.1-3.7c3.4,0,6.3,0.3,8.8,1s4.5,1.6,6.2,2.9c1.7,1.2,2.9,2.6,3.8,4.3c0.9,1.7,1.5,3.4,1.9,5.3l-16.5,1.4
		c-0.4-2.4-1.9-3.6-4.4-3.6c-1.2,0-2,0.2-2.6,0.7c-0.6,0.4-0.9,1-0.9,1.8c0,0.7,0.3,1.3,0.9,1.7c0.6,0.4,1.6,0.8,3,1.1l4.5,0.9
		c3.1,0.7,5.8,1.4,7.9,2.2s3.8,1.8,5.1,2.9c1.3,1.1,2.2,2.4,2.8,3.8c0.6,1.4,0.9,3.2,0.9,5.4c0,4.7-1.7,8.3-5,10.8
		c-3.4,2.5-8.5,3.8-15.5,3.8c-2.6,0-5.1-0.2-7.6-0.6c-2.5-0.4-4.8-1.2-6.9-2.3s-3.8-2.7-5.1-4.8c-1.3-2.1-2.1-4.6-2.3-7.6h16.4V45z"
		/>
	<path class="st0" d="M84,78.9v4.3c2.9-3.7,6.8-5.6,11.9-5.6c5.2,0,9.4,1.9,12.5,5.7c3.1,3.8,4.6,9.4,4.6,16.8
		c0,3.8-0.4,7.2-1.3,10.2s-2.1,5.6-3.7,7.6s-3.4,3.5-5.6,4.5s-4.6,1.5-7.2,1.5c-2.5,0-4.7-0.4-6.4-1.3c-1.7-0.9-3.1-2-4.1-3.4v19.5
		H67V78.9H84z M84.8,101.3c0,3,0.4,5.2,1.2,6.5c0.8,1.3,2.1,2,3.9,2s3.1-0.7,4-2.1s1.4-3.7,1.4-7s-0.5-5.6-1.4-7c-0.9-1.3-2.3-2-4-2
		s-2.9,0.7-3.8,2c-0.5,0.8-0.8,1.7-1,2.7s-0.3,2.3-0.3,3.7C84.8,100.1,84.8,101.3,84.8,101.3z"/>
	<path class="st0" d="M141.2,122.6v-4.1c-1.8,1.8-3.6,3.1-5.7,4c-2,0.9-4.3,1.3-7,1.3c-1.8,0-3.6-0.2-5.4-0.7s-3.3-1.3-4.7-2.3
		c-1.4-1.1-2.5-2.4-3.3-4.1c-0.9-1.6-1.3-3.7-1.3-6c0-2.9,0.6-5.3,1.9-7.2c1.2-1.9,2.9-3.5,5-4.6s4.4-1.9,6.7-2.3
		c2.3-0.4,5-0.7,8.1-0.8l5-0.2V94c0-1.6-0.3-2.8-1-3.5s-1.7-1.1-3-1.1s-2.3,0.3-3,0.9s-1.2,1.5-1.4,2.7l-15.8-1.2
		c0.7-4.7,2.8-8.2,6.3-10.6s8.3-3.6,14.4-3.6c3.8,0,7,0.4,9.5,1.3c2.6,0.9,4.6,2.1,6.2,3.7c1.6,1.6,2.7,3.5,3.3,5.8
		c0.7,2.3,1,4.8,1,7.5v26.6L141.2,122.6L141.2,122.6z M140.5,104.9l-4.5,0.2c-2,0.1-3.5,0.5-4.5,1.2s-1.4,1.6-1.4,2.9
		c0,1,0.3,1.8,1,2.4c0.7,0.5,1.6,0.8,2.9,0.8c1.9,0,3.5-0.6,4.8-1.8c1.2-1.2,1.9-2.7,1.9-4.7v-1H140.5z"/>
	<path class="st0" d="M182,123.9c-7.5,0-13.2-2-17.1-6.1c-3.8-4-5.7-9.7-5.7-16.9c0-7.3,2-13,6-17.1s9.8-6.2,17.2-6.2
		c7.5,0,13.2,2,17,6.1c3.9,4,5.8,9.7,5.8,16.9c0,7.3-2,13-6,17.1C195.3,121.8,189.5,123.9,182,123.9z M176.9,100.8
		c0,1.8,0.1,3.2,0.4,4.4c0.2,1.2,0.6,2.1,1.1,2.8c0.5,0.7,1.1,1.2,1.7,1.4c0.7,0.3,1.3,0.4,2.1,0.4s1.5-0.1,2.1-0.4
		c0.7-0.3,1.2-0.8,1.7-1.4c0.5-0.7,0.9-1.6,1.1-2.8c0.2-1.2,0.4-2.6,0.4-4.4s-0.1-3.2-0.4-4.4c-0.2-1.2-0.6-2.1-1.1-2.8
		c-0.5-0.7-1.1-1.2-1.7-1.4c-0.7-0.3-1.4-0.4-2.1-0.4c-0.7,0-1.4,0.1-2.1,0.4c-0.7,0.3-1.2,0.8-1.7,1.4c-0.5,0.7-0.9,1.6-1.1,2.8
		S176.9,99,176.9,100.8z"/>
	<path class="st0" d="M208.1,63.6h17.7v59h-17.7V63.6z"/>
	<path class="st0" d="M273,122.6h-17.2V118c-1.4,1.8-3.1,3.2-5.1,4.3s-4.3,1.6-7.1,1.6c-4.4,0-7.8-1.3-10.3-4s-3.8-6.5-3.8-11.5
		V78.9h17.7v26.4c0,1.4,0.3,2.5,0.9,3.1s1.4,0.9,2.4,0.9c1.9,0,3.2-0.6,4-1.9c0.2-0.3,0.4-0.6,0.5-1.1s0.2-1.1,0.2-1.9V78.9H273
		V122.6z"/>
	<path class="st0" d="M319,105c-0.3,2.7-0.9,5.2-1.8,7.5s-2.2,4.3-3.9,6c-1.7,1.7-3.8,3-6.3,3.9s-5.6,1.4-9.1,1.4
		c-3.8,0-7.1-0.6-9.9-1.7s-5.1-2.7-7-4.7c-1.8-2-3.2-4.4-4.1-7.2c-0.9-2.8-1.3-5.9-1.3-9.2c0-7.4,2-13.2,5.9-17.3
		c4-4.1,9.4-6.2,16.4-6.2c3.5,0,6.6,0.5,9.1,1.4s4.6,2.2,6.2,3.8c1.6,1.6,2.8,3.4,3.7,5.5c0.9,2.1,1.5,4.2,1.7,6.4L302.2,96
		c-0.2-1.4-0.6-2.4-1.2-3.2c-0.6-0.8-1.5-1.2-2.8-1.2c-1.7,0-2.9,0.7-3.7,2.1c-0.8,1.4-1.2,3.7-1.2,6.8c0,3.3,0.4,5.6,1.3,7
		s2.1,2.1,3.8,2.1c1.3,0,2.3-0.4,3-1.2c0.7-0.8,1.1-2,1.2-3.5L319,105L319,105z"/>
	<path class="st0" d="M362.8,105c-0.3,2.7-0.9,5.2-1.8,7.5s-2.2,4.3-3.9,6c-1.7,1.7-3.8,3-6.3,3.9s-5.6,1.4-9.1,1.4
		c-3.8,0-7.1-0.6-9.9-1.7s-5.1-2.7-7-4.7c-1.8-2-3.2-4.4-4.1-7.2c-0.9-2.8-1.3-5.9-1.3-9.2c0-7.4,2-13.2,5.9-17.3
		c4-4.1,9.4-6.2,16.4-6.2c3.5,0,6.6,0.5,9.1,1.4s4.6,2.2,6.2,3.8c1.6,1.6,2.8,3.4,3.7,5.5c0.9,2.1,1.5,4.2,1.7,6.4L346,96
		c-0.2-1.4-0.6-2.4-1.2-3.2s-1.5-1.2-2.8-1.2c-1.7,0-2.9,0.7-3.7,2.1c-0.8,1.4-1.2,3.7-1.2,6.8c0,3.3,0.4,5.6,1.3,7s2.1,2.1,3.8,2.1
		c1.3,0,2.3-0.4,3-1.2c0.7-0.8,1.1-2,1.2-3.5L362.8,105L362.8,105z"/>
	<path class="st0" d="M364.5,63.6h17.7v11.2h-17.7V63.6z M364.5,78.9h17.7v43.6h-17.7V78.9z"/>
</g>
</svg>
